{
    "asset" : {
        "generator" : "Khronos glTF Blender I/O v1.7.33",
        "version" : "2.0"
    },
    "scene" : 0,
    "scenes" : [
        {
            "name" : "Scene",
            "nodes" : [
                0
            ]
        }
    ],
    "nodes" : [
        {
            "mesh" : 0,
            "name" : "Brain_Part_06",
            "rotation" : [
                0.7117129564285278,
                0,
                0,
                0.7024704217910767
            ],
            "scale" : [
                3.586127758026123,
                3.5861282348632812,
                3.5861282348632812
            ],
            "translation" : [
                -1.4918196201324463,
                1.8733010292053223,
                0.7484493255615234
            ]
        }
    ],
    "materials" : [
        {
            "doubleSided" : true,
            "name" : "BRAIN_TEXTURE_blinn2",
            "pbrMetallicRoughness" : {
                "baseColorFactor" : [
                    0.9999779462814331,
                    0.2971762716770172,
                    0.37394338846206665,
                    1
                ],
                "metallicFactor" : 0,
                "roughnessFactor" : 0.5
            }
        }
    ],
    "meshes" : [
        {
            "name" : "Untitled.002",
            "primitives" : [
                {
                    "attributes" : {
                        "POSITION" : 0,
                        "NORMAL" : 1,
                        "TEXCOORD_0" : 2,
                        "TEXCOORD_1" : 3
                    },
                    "indices" : 4,
                    "material" : 0
                },
                {
                    "attributes" : {
                        "POSITION" : 5,
                        "NORMAL" : 6,
                        "TEXCOORD_0" : 7,
                        "TEXCOORD_1" : 8
                    },
                    "indices" : 9
                }
            ]
        }
    ],
    "accessors" : [
        {
            "bufferView" : 0,
            "componentType" : 5126,
            "count" : 19991,
            "max" : [
                0.2207905501127243,
                0.6792975068092346,
                0.37723761796951294
            ],
            "min" : [
                -0.3148539662361145,
                -0.6369249224662781,
                -0.46005791425704956
            ],
            "type" : "VEC3"
        },
        {
            "bufferView" : 1,
            "componentType" : 5126,
            "count" : 19991,
            "type" : "VEC3"
        },
        {
            "bufferView" : 2,
            "componentType" : 5126,
            "count" : 19991,
            "type" : "VEC2"
        },
        {
            "bufferView" : 3,
            "componentType" : 5126,
            "count" : 19991,
            "type" : "VEC2"
        },
        {
            "bufferView" : 4,
            "componentType" : 5123,
            "count" : 114666,
            "type" : "SCALAR"
        },
        {
            "bufferView" : 5,
            "componentType" : 5126,
            "count" : 19991,
            "max" : [
                0.7436177134513855,
                0.6792975664138794,
                0.37723761796951294
            ],
            "min" : [
                0.2079731971025467,
                -0.6369249820709229,
                -0.4600580334663391
            ],
            "type" : "VEC3"
        },
        {
            "bufferView" : 6,
            "componentType" : 5126,
            "count" : 19991,
            "type" : "VEC3"
        },
        {
            "bufferView" : 7,
            "componentType" : 5126,
            "count" : 19991,
            "type" : "VEC2"
        },
        {
            "bufferView" : 8,
            "componentType" : 5126,
            "count" : 19991,
            "type" : "VEC2"
        },
        {
            "bufferView" : 9,
            "componentType" : 5123,
            "count" : 114666,
            "type" : "SCALAR"
        }
    ],
    "bufferViews" : [
        {
            "buffer" : 0,
            "byteLength" : 239892,
            "byteOffset" : 0
        },
        {
            "buffer" : 0,
            "byteLength" : 239892,
            "byteOffset" : 239892
        },
        {
            "buffer" : 0,
            "byteLength" : 159928,
            "byteOffset" : 479784
        },
        {
            "buffer" : 0,
            "byteLength" : 159928,
            "byteOffset" : 639712
        },
        {
            "buffer" : 0,
            "byteLength" : 229332,
            "byteOffset" : 799640
        },
        {
            "buffer" : 0,
            "byteLength" : 239892,
            "byteOffset" : 1028972
        },
        {
            "buffer" : 0,
            "byteLength" : 239892,
            "byteOffset" : 1268864
        },
        {
            "buffer" : 0,
            "byteLength" : 159928,
            "byteOffset" : 1508756
        },
        {
            "buffer" : 0,
            "byteLength" : 159928,
            "byteOffset" : 1668684
        },
        {
            "buffer" : 0,
            "byteLength" : 229332,
            "byteOffset" : 1828612
        }
    ],
    "buffers" : [
        {
            "byteLength" : 2057944,
            "uri" : "data:application/octet-stream;base64,"
        }
    ]
}
