{
    "asset" : {
        "generator" : "Khronos glTF Blender I/O v1.7.33",
        "version" : "2.0"
    },
    "scene" : 0,
    "scenes" : [
        {
            "name" : "Scene",
            "nodes" : [
                0
            ]
        }
    ],
    "nodes" : [
        {
            "mesh" : 0,
            "name" : "Brain_Part_06",
            "rotation" : [
                0.7117129564285278,
                0,
                0,
                0.7024704217910767
            ],
            "scale" : [
                3.586127758026123,
                3.5861282348632812,
                3.5861282348632812
            ],
            "translation" : [
                0.5932080745697021,
                3.106086254119873,
                1.4331059455871582
            ]
        }
    ],
    "materials" : [
        {
            "doubleSided" : true,
            "name" : "BRAIN_TEXTURE_blinn2",
            "pbrMetallicRoughness" : {
                "baseColorFactor" : [
                    1,
                    0.5690047740936279,
                    0.4136325716972351,
                    1
                ],
                "metallicFactor" : 0,
                "roughnessFactor" : 0.5
            }
        }
    ],
    "meshes" : [
        {
            "name" : "Untitled.002",
            "primitives" : [
                {
                    "attributes" : {
                        "POSITION" : 0,
                        "NORMAL" : 1,
                        "TEXCOORD_0" : 2,
                        "TEXCOORD_1" : 3
                    },
                    "indices" : 4,
                    "material" : 0
                }
            ]
        }
    ],
    "accessors" : [
        {
            "bufferView" : 0,
            "componentType" : 5126,
            "count" : 39982,
            "max" : [
                0.7436177134513855,
                0.6792975664138794,
                0.37723761796951294
            ],
            "min" : [
                -0.3148539662361145,
                -0.6369249820709229,
                -0.4600580334663391
            ],
            "type" : "VEC3"
        },
        {
            "bufferView" : 1,
            "componentType" : 5126,
            "count" : 39982,
            "type" : "VEC3"
        },
        {
            "bufferView" : 2,
            "componentType" : 5126,
            "count" : 39982,
            "type" : "VEC2"
        },
        {
            "bufferView" : 3,
            "componentType" : 5126,
            "count" : 39982,
            "type" : "VEC2"
        },
        {
            "bufferView" : 4,
            "componentType" : 5123,
            "count" : 229332,
            "type" : "SCALAR"
        }
    ],
    "bufferViews" : [
        {
            "buffer" : 0,
            "byteLength" : 479784,
            "byteOffset" : 0
        },
        {
            "buffer" : 0,
            "byteLength" : 479784,
            "byteOffset" : 479784
        },
        {
            "buffer" : 0,
            "byteLength" : 319856,
            "byteOffset" : 959568
        },
        {
            "buffer" : 0,
            "byteLength" : 319856,
            "byteOffset" : 1279424
        },
        {
            "buffer" : 0,
            "byteLength" : 458664,
            "byteOffset" : 1599280
        }
    ],
    "buffers" : [
        {
            "byteLength" : 2057944,
            "uri" : "data:application/octet-stream;base64,"
        }
    ]
}
